<?xml version="1.0" encoding="utf-8"?>
<svg xmlns="http://www.w3.org/2000/svg" style="margin: auto; background: none; display: block; shape-rendering: auto;" width="281" height="250" preserveAspectRatio="xMidYMid">
<style type="text/css">
  text {
    text-anchor: middle; font-size: 80px; opacity: 0;
  }
</style>
<g style="transform-origin:140.5px 125px;transform:scale(1)">
<g transform="translate(140.5,125)">
  <g transform="translate(0,0)"><g class="path" style="transform: scale(0.91); transform-origin: -109.78px -6.55403px; animation: 1.25s linear -0.707143s infinite normal forwards running breath-cb23daf2-2236-4e1b-bb8f-74f6ff30f14b;"><path d="M46.76-7.15L46.76 0L6.37 0L6.37-56.25L21.88-56.25L21.88-7.15L46.76-7.15" fill="#51cacc" stroke="none" stroke-width="none" transform="translate(-136.3449764251709,21.57097285951888)" style="fill: rgb(81, 202, 204);"></path></g><g class="path" style="transform: scale(0.91); transform-origin: -62.54px -1.08403px; animation: 1.25s linear -0.589286s infinite normal forwards running breath-cb23daf2-2236-4e1b-bb8f-74f6ff30f14b;"><path d="M98.98-22.66L98.98-22.66L98.98-22.66Q98.98-19.14 98.05-16.05L98.05-16.05L98.05-16.05Q97.11-12.97 95.45-10.35L95.45-10.35L95.45-10.35Q93.79-7.73 91.45-5.64L91.45-5.64L91.45-5.64Q89.10-3.55 86.31-2.11L86.31-2.11L86.31-2.11Q83.52-0.66 80.33 0.12L80.33 0.12L80.33 0.12Q77.15 0.90 73.79 0.90L73.79 0.90L73.79 0.90Q70.43 0.90 67.27 0.12L67.27 0.12L67.27 0.12Q64.10-0.66 61.31-2.11L61.31-2.11L61.31-2.11Q58.52-3.55 56.17-5.64L56.17-5.64L56.17-5.64Q53.83-7.73 52.17-10.35L52.17-10.35L52.17-10.35Q50.51-12.97 49.57-16.07L49.57-16.07L49.57-16.07Q48.63-19.18 48.63-22.66L48.63-22.66L48.63-22.66Q48.63-26.13 49.57-29.24L49.57-29.24L49.57-29.24Q50.51-32.34 52.17-34.96L52.17-34.96L52.17-34.96Q53.83-37.58 56.17-39.67L56.17-39.67L56.17-39.67Q58.52-41.76 61.31-43.20L61.31-43.20L61.31-43.20Q64.10-44.65 67.27-45.43L67.27-45.43L67.27-45.43Q70.43-46.21 73.79-46.21L73.79-46.21L73.79-46.21Q77.15-46.21 80.33-45.43L80.33-45.43L80.33-45.43Q83.52-44.65 86.31-43.20L86.31-43.20L86.31-43.20Q89.10-41.76 91.45-39.67L91.45-39.67L91.45-39.67Q93.79-37.58 95.45-34.96L95.45-34.96L95.45-34.96Q97.11-32.34 98.05-29.24L98.05-29.24L98.05-29.24Q98.98-26.13 98.98-22.66zM85.55-22.66L85.55-22.66L85.55-22.66Q85.55-24.53 85.33-26.62L85.33-26.62L85.33-26.62Q85.12-28.71 84.61-30.72L84.61-30.72L84.61-30.72Q84.10-32.73 83.22-34.59L83.22-34.59L83.22-34.59Q82.34-36.45 81.05-37.83L81.05-37.83L81.05-37.83Q79.77-39.22 77.97-40.06L77.97-40.06L77.97-40.06Q76.17-40.90 73.79-40.90L73.79-40.90L73.79-40.90Q71.52-40.90 69.77-40.04L69.77-40.04L69.77-40.04Q68.01-39.18 66.70-37.75L66.70-37.75L66.70-37.75Q65.39-36.33 64.51-34.45L64.51-34.45L64.51-34.45Q63.63-32.58 63.09-30.57L63.09-30.57L63.09-30.57Q62.54-28.55 62.30-26.50L62.30-26.50L62.30-26.50Q62.07-24.45 62.07-22.66L62.07-22.66L62.07-22.66Q62.07-20.86 62.30-18.81L62.30-18.81L62.30-18.81Q62.54-16.76 63.09-14.73L63.09-14.73L63.09-14.73Q63.63-12.70 64.51-10.84L64.51-10.84L64.51-10.84Q65.39-8.98 66.70-7.56L66.70-7.56L66.70-7.56Q68.01-6.13 69.77-5.27L69.77-5.27L69.77-5.27Q71.52-4.41 73.79-4.41L73.79-4.41L73.79-4.41Q76.13-4.41 77.93-5.25L77.93-5.25L77.93-5.25Q79.73-6.09 81.04-7.50L81.04-7.50L81.04-7.50Q82.34-8.91 83.20-10.74L83.20-10.74L83.20-10.74Q84.06-12.58 84.59-14.61L84.59-14.61L84.59-14.61Q85.12-16.64 85.33-18.71L85.33-18.71L85.33-18.71Q85.55-20.78 85.55-22.66" fill="#51cacc" stroke="none" stroke-width="none" transform="translate(-136.3449764251709,21.57097285951888)" style="fill: rgb(157, 248, 113);"></path></g><g class="path" style="transform: scale(0.91); transform-origin: -8.27997px -0.464027px; animation: 1.25s linear -0.471429s infinite normal forwards running breath-cb23daf2-2236-4e1b-bb8f-74f6ff30f14b;"><path d="M105-19.30L105-19.30L105-19.30Q105-22.38 105.53-25.70L105.53-25.70L105.53-25.70Q106.05-29.02 107.05-32.34L107.05-32.34L107.05-32.34Q108.05-35.66 109.45-38.91L109.45-38.91L109.45-38.91Q110.86-42.15 112.62-45.12L112.62-45.12L122.27-45.12L122.27-45.12Q121.29-42.19 120.53-39.00L120.53-39.00L120.53-39.00Q119.77-35.82 119.24-32.64L119.24-32.64L119.24-32.64Q118.71-29.45 118.42-26.41L118.42-26.41L118.42-26.41Q118.13-23.36 118.13-20.74L118.13-20.74L118.13-20.74Q118.13-19.22 118.26-17.48L118.26-17.48L118.26-17.48Q118.40-15.74 118.75-14.00L118.75-14.00L118.75-14.00Q119.10-12.27 119.75-10.66L119.75-10.66L119.75-10.66Q120.39-9.06 121.41-7.83L121.41-7.83L121.41-7.83Q122.42-6.60 123.89-5.88L123.89-5.88L123.89-5.88Q125.35-5.16 127.34-5.16L127.34-5.16L127.34-5.16Q129.30-5.16 130.84-6.04L130.84-6.04L130.84-6.04Q132.38-6.91 133.55-8.34L133.55-8.34L133.55-8.34Q134.73-9.77 135.55-11.60L135.55-11.60L135.55-11.60Q136.37-13.44 136.89-15.37L136.89-15.37L136.89-15.37Q137.42-17.30 137.68-19.16L137.68-19.16L137.68-19.16Q137.93-21.02 137.93-22.50L137.93-22.50L137.93-45.12L151.13-45.12L151.13 0L146.05 0L140-10.51L140-10.51Q138.87-7.89 137.25-5.76L137.25-5.76L137.25-5.76Q135.63-3.63 133.55-2.11L133.55-2.11L133.55-2.11Q131.48-0.59 128.96 0.23L128.96 0.23L128.96 0.23Q126.45 1.05 123.52 1.05L123.52 1.05L123.52 1.05Q118.83 1.05 115.35-0.47L115.35-0.47L115.35-0.47Q111.88-1.99 109.57-4.69L109.57-4.69L109.57-4.69Q107.27-7.38 106.13-11.11L106.13-11.11L106.13-11.11Q105-14.84 105-19.30" fill="#51cacc" stroke="none" stroke-width="none" transform="translate(-136.3449764251709,21.57097285951888)" style="fill: rgb(224, 255, 119);"></path></g><g class="path" style="transform: scale(0.91); transform-origin: 32.465px -34.424px; animation: 1.25s linear -0.353571s infinite normal forwards running breath-cb23daf2-2236-4e1b-bb8f-74f6ff30f14b;"><path d="M176.02-56.02L176.02-56.02L176.02-56.02Q176.02-54.53 175.45-53.20L175.45-53.20L175.45-53.20Q174.88-51.88 173.91-50.90L173.91-50.90L173.91-50.90Q172.93-49.92 171.60-49.36L171.60-49.36L171.60-49.36Q170.27-48.79 168.79-48.79L168.79-48.79L168.79-48.79Q167.30-48.79 166.00-49.36L166.00-49.36L166.00-49.36Q164.69-49.92 163.71-50.90L163.71-50.90L163.71-50.90Q162.73-51.88 162.17-53.20L162.17-53.20L162.17-53.20Q161.60-54.53 161.60-56.02L161.60-56.02L161.60-56.02Q161.60-57.50 162.17-58.81L162.17-58.81L162.17-58.81Q162.73-60.12 163.71-61.09L163.71-61.09L163.71-61.09Q164.69-62.07 166.00-62.64L166.00-62.64L166.00-62.64Q167.30-63.20 168.79-63.20L168.79-63.20L168.79-63.20Q170.27-63.20 171.60-62.64L171.60-62.64L171.60-62.64Q172.93-62.07 173.91-61.09L173.91-61.09L173.91-61.09Q174.88-60.12 175.45-58.81L175.45-58.81L175.45-58.81Q176.02-57.50 176.02-56.02" fill="#51cacc" stroke="none" stroke-width="none" transform="translate(-136.3449764251709,21.57097285951888)" style="fill: rgb(222, 157, 214);"></path></g><g class="path" style="transform: scale(0.91); transform-origin: 32.465px -0.969028px; animation: 1.25s linear -0.235714s infinite normal forwards running breath-cb23daf2-2236-4e1b-bb8f-74f6ff30f14b;"><path d="M175.43-45.08L175.43 0L162.19 0L162.19-45.08L175.43-45.08" fill="#51cacc" stroke="none" stroke-width="none" transform="translate(-136.3449764251709,21.57097285951888)" style="fill: rgb(255, 112, 142);"></path></g><g class="path" style="transform: scale(0.91); transform-origin: 68.125px -1.08403px; animation: 1.25s linear -0.117857s infinite normal forwards running breath-cb23daf2-2236-4e1b-bb8f-74f6ff30f14b;"><path d="M225.31-14.41L225.31-14.41L225.31-14.41Q225.31-11.45 224.45-9.14L224.45-9.14L224.45-9.14Q223.59-6.84 222.11-5.14L222.11-5.14L222.11-5.14Q220.63-3.44 218.59-2.29L218.59-2.29L218.59-2.29Q216.56-1.13 214.24-0.43L214.24-0.43L214.24-0.43Q211.91 0.27 209.38 0.59L209.38 0.59L209.38 0.59Q206.84 0.90 204.34 0.90L204.34 0.90L204.34 0.90Q200.98 0.90 198.40 0.47L198.40 0.47L198.40 0.47Q195.82 0.04 193.48-0.92L193.48-0.92L193.48-0.92Q191.13-1.88 188.81-3.40L188.81-3.40L188.81-3.40Q186.48-4.92 183.63-7.11L183.63-7.11L191.33-13.40L191.33-13.40Q192.38-11.41 194.12-9.79L194.12-9.79L194.12-9.79Q195.86-8.16 197.73-6.99L197.73-6.99L197.73-6.99Q199.61-5.82 201.37-5.20L201.37-5.20L201.37-5.20Q203.13-4.57 204.22-4.57L204.22-4.57L204.22-4.57Q205.12-4.57 206.25-4.63L206.25-4.63L206.25-4.63Q207.38-4.69 208.55-4.86L208.55-4.86L208.55-4.86Q209.73-5.04 210.86-5.39L210.86-5.39L210.86-5.39Q211.99-5.74 212.87-6.35L212.87-6.35L212.87-6.35Q213.75-6.95 214.28-7.87L214.28-7.87L214.28-7.87Q214.80-8.79 214.80-10.08L214.80-10.08L214.80-10.08Q214.80-11.41 214.12-12.40L214.12-12.40L214.12-12.40Q213.44-13.40 212.34-14.14L212.34-14.14L212.34-14.14Q211.25-14.88 209.84-15.39L209.84-15.39L209.84-15.39Q208.44-15.90 207.01-16.29L207.01-16.29L207.01-16.29Q205.59-16.68 204.26-16.97L204.26-16.97L204.26-16.97Q202.93-17.27 201.95-17.54L201.95-17.54L201.95-17.54Q200.16-18.05 198.16-18.57L198.16-18.57L198.16-18.57Q196.17-19.10 194.22-19.79L194.22-19.79L194.22-19.79Q192.27-20.47 190.49-21.41L190.49-21.41L190.49-21.41Q188.71-22.34 187.36-23.65L187.36-23.65L187.36-23.65Q186.02-24.96 185.21-26.74L185.21-26.74L185.21-26.74Q184.41-28.52 184.41-30.90L184.41-30.90L184.41-30.90Q184.41-35.27 186.15-38.22L186.15-38.22L186.15-38.22Q187.89-41.17 190.74-42.95L190.74-42.95L190.74-42.95Q193.59-44.73 197.23-45.47L197.23-45.47L197.23-45.47Q200.86-46.21 204.61-46.21L204.61-46.21L204.61-46.21Q207.19-46.21 210.04-45.68L210.04-45.68L210.04-45.68Q212.89-45.16 215.59-44.12L215.59-44.12L215.59-44.12Q218.28-43.09 220.63-41.60L220.63-41.60L220.63-41.60Q222.97-40.12 224.53-38.20L224.53-38.20L216.84-31.88L216.84-31.88Q215.98-34.22 214.59-35.90L214.59-35.90L214.59-35.90Q213.20-37.58 211.58-38.65L211.58-38.65L211.58-38.65Q209.96-39.73 208.26-40.23L208.26-40.23L208.26-40.23Q206.56-40.74 205.12-40.74L205.12-40.74L205.12-40.74Q203.71-40.74 201.95-40.63L201.95-40.63L201.95-40.63Q200.20-40.51 198.65-39.96L198.65-39.96L198.65-39.96Q197.11-39.41 196.04-38.30L196.04-38.30L196.04-38.30Q194.96-37.19 194.96-35.23L194.96-35.23L194.96-35.23Q194.96-33.83 195.61-32.83L195.61-32.83L195.61-32.83Q196.25-31.84 197.30-31.11L197.30-31.11L197.30-31.11Q198.36-30.39 199.71-29.90L199.71-29.90L199.71-29.90Q201.05-29.41 202.46-29.04L202.46-29.04L202.46-29.04Q203.87-28.67 205.20-28.40L205.20-28.40L205.20-28.40Q206.52-28.13 207.58-27.81L207.58-27.81L207.58-27.81Q209.38-27.30 211.39-26.78L211.39-26.78L211.39-26.78Q213.40-26.25 215.35-25.57L215.35-25.57L215.35-25.57Q217.30-24.88 219.12-23.96L219.12-23.96L219.12-23.96Q220.94-23.05 222.30-21.72L222.30-21.72L222.30-21.72Q223.67-20.39 224.49-18.61L224.49-18.61L224.49-18.61Q225.31-16.84 225.31-14.41" fill="#51cacc" stroke="none" stroke-width="none" transform="translate(-136.3449764251709,21.57097285951888)" style="fill: rgb(81, 202, 204);"></path></g><g class="path" style="transform: scale(0.91); transform-origin: 118.73px -1.08403px; animation: 1.25s linear 0s infinite normal forwards running breath-cb23daf2-2236-4e1b-bb8f-74f6ff30f14b;"><path d="M279.06-45.12L279.06 0L265.86 0L265.86-5.39L265.86-5.39Q263.52-2.19 260.21-0.64L260.21-0.64L260.21-0.64Q256.91 0.90 252.97 0.90L252.97 0.90L252.97 0.90Q247.81 0.90 243.75-0.94L243.75-0.94L243.75-0.94Q239.69-2.77 236.88-5.96L236.88-5.96L236.88-5.96Q234.06-9.14 232.58-13.44L232.58-13.44L232.58-13.44Q231.09-17.73 231.09-22.66L231.09-22.66L231.09-22.66Q231.09-27.58 232.58-31.88L232.58-31.88L232.58-31.88Q234.06-36.17 236.88-39.36L236.88-39.36L236.88-39.36Q239.69-42.54 243.75-44.38L243.75-44.38L243.75-44.38Q247.81-46.21 252.97-46.21L252.97-46.21L252.97-46.21Q255.59-46.21 257.95-45.43L257.95-45.43L257.95-45.43Q260.31-44.65 262.29-43.22L262.29-43.22L262.29-43.22Q264.26-41.80 265.76-39.79L265.76-39.79L265.76-39.79Q267.27-37.77 268.13-35.31L268.13-35.31L273.98-45.12L279.06-45.12zM265.78-22.66L265.78-22.66L265.78-22.66Q265.78-24.41 265.61-26.37L265.61-26.37L265.61-26.37Q265.43-28.32 265-30.23L265-30.23L265-30.23Q264.57-32.15 263.81-33.89L263.81-33.89L263.81-33.89Q263.05-35.63 261.86-36.97L261.86-36.97L261.86-36.97Q260.66-38.32 258.98-39.10L258.98-39.10L258.98-39.10Q257.30-39.88 255.08-39.88L255.08-39.88L255.08-39.88Q252.85-39.88 251.21-39.08L251.21-39.08L251.21-39.08Q249.57-38.28 248.40-36.93L248.40-36.93L248.40-36.93Q247.23-35.59 246.46-33.83L246.46-33.83L246.46-33.83Q245.70-32.07 245.27-30.16L245.27-30.16L245.27-30.16Q244.84-28.24 244.67-26.31L244.67-26.31L244.67-26.31Q244.49-24.38 244.49-22.66L244.49-22.66L244.49-22.66Q244.49-20.94 244.67-18.98L244.67-18.98L244.67-18.98Q244.84-17.03 245.27-15.12L245.27-15.12L245.27-15.12Q245.70-13.20 246.46-11.45L246.46-11.45L246.46-11.45Q247.23-9.69 248.40-8.34L248.40-8.34L248.40-8.34Q249.57-6.99 251.21-6.19L251.21-6.19L251.21-6.19Q252.85-5.39 255.08-5.39L255.08-5.39L255.08-5.39Q257.11-5.39 258.69-6.23L258.69-6.23L258.69-6.23Q260.27-7.07 261.46-8.48L261.46-8.48L261.46-8.48Q262.66-9.88 263.48-11.68L263.48-11.68L263.48-11.68Q264.30-13.48 264.80-15.39L264.80-15.39L264.80-15.39Q265.31-17.30 265.55-19.20L265.55-19.20L265.55-19.20Q265.78-21.09 265.78-22.66" fill="#51cacc" stroke="none" stroke-width="none" transform="translate(-136.3449764251709,21.57097285951888)" style="fill: rgb(157, 248, 113);"></path></g></g>
</g>
</g>
<style id="breath-cb23daf2-2236-4e1b-bb8f-74f6ff30f14b" data-anikit="">@keyframes breath-cb23daf2-2236-4e1b-bb8f-74f6ff30f14b
{
  0% {
    animation-timing-function: cubic-bezier(0.9647,0.2413,-0.0705,0.7911);
    transform: scale(0.9099999999999999);
  }
  51% {
    animation-timing-function: cubic-bezier(0.9226,0.2631,-0.0308,0.7628);
    transform: scale(1.02994);
  }
  100% {
    transform: scale(0.9099999999999999);
  }
}</style></svg>