<?xml version="1.0" encoding="iso-8859-1"?>
<!-- Generator: Adobe Illustrator 19.0.0, SVG Export Plug-In . SVG Version: 6.00 Build 0)  -->
<svg version="1.1" id="Layer_1" xmlns="http://www.w3.org/2000/svg" xmlns:xlink="http://www.w3.org/1999/xlink" x="0px" y="0px"
	 viewBox="0 0 512 512" style="enable-background:new 0 0 512 512;" xml:space="preserve">
<g>
	<g>
		<path d="M109.714,7.837C49.218,7.837,0,57.055,0,117.551c0,25.626,8.993,50.146,24.882,69.545
			c12.427-29.408,30.538-56.431,53.792-79.686c31.376-31.376,69.605-53.403,111.308-64.706
			C169.541,20.722,140.716,7.837,109.714,7.837z"/>
	</g>
</g>
<g>
	<g>
		<path d="M402.286,7.837c-31.002,0-59.827,12.886-80.269,34.867c41.703,11.304,79.933,33.33,111.309,64.706
			c23.255,23.255,41.365,50.278,53.793,79.686c15.888-19.4,24.881-43.919,24.881-69.545C512,57.055,462.782,7.837,402.286,7.837z"/>
	</g>
</g>
<g>
	<g>
		<path d="M177.633,216.816c-8.072,0-15.744,3.071-21.601,8.649l-26.474,25.22c-9.428,8.977-14.619,21.068-14.619,34.05
			c0,25.927,21.093,47.02,47.02,47.02c25.927,0,47.02-21.093,47.02-47.02v-36.571C208.98,230.879,194.917,216.816,177.633,216.816z"
			/>
	</g>
</g>
<g>
	<g>
		<path d="M256,65.306c-120.993,0-219.429,98.436-219.429,219.429S135.007,504.163,256,504.163s219.429-98.436,219.429-219.429
			S376.993,65.306,256,65.306z M83.592,284.735c0-21.647,8.647-41.801,24.347-56.749l26.474-25.22
			c11.716-11.154,27.065-17.296,43.22-17.296c34.569,0,62.694,28.124,62.694,62.694v36.571c0,43.212-35.156,78.367-78.367,78.367
			C118.747,363.102,83.592,327.946,83.592,284.735z M303.02,415.347h-31.347v41.796h-31.347v-41.796H208.98V384h94.041V415.347z
			 M350.041,363.102c-43.212,0-78.367-35.156-78.367-78.367v-36.571c0-34.569,28.125-62.694,62.694-62.694
			c16.155,0,31.504,6.142,43.217,17.294l26.48,25.226c15.698,14.946,24.344,35.1,24.344,56.745
			C428.408,327.946,393.253,363.102,350.041,363.102z"/>
	</g>
</g>
<g>
	<g>
		<path d="M382.445,250.688l-26.48-25.226c-5.856-5.575-13.526-8.645-21.598-8.645c-17.285,0-31.347,14.062-31.347,31.347v36.571
			c0,25.927,21.093,47.02,47.02,47.02c25.927,0,47.02-21.093,47.02-47.02C397.061,271.754,391.87,259.662,382.445,250.688z"/>
	</g>
</g>
<g>
</g>
<g>
</g>
<g>
</g>
<g>
</g>
<g>
</g>
<g>
</g>
<g>
</g>
<g>
</g>
<g>
</g>
<g>
</g>
<g>
</g>
<g>
</g>
<g>
</g>
<g>
</g>
<g>
</g>
</svg>
