<?xml version="1.0" encoding="iso-8859-1"?>
<!-- Generator: Adobe Illustrator 19.0.0, SVG Export Plug-In . SVG Version: 6.00 Build 0)  -->
<svg version="1.1" id="Layer_1" xmlns="http://www.w3.org/2000/svg" xmlns:xlink="http://www.w3.org/1999/xlink" x="0px" y="0px"
	 viewBox="0 0 512 512" style="enable-background:new 0 0 512 512;" xml:space="preserve">
<g>
	<g>
		<path d="M158.567,170.892c-30.22,0-54.806,24.585-54.806,54.806s24.586,54.806,54.806,54.806s54.806-24.586,54.806-54.806
			C213.374,195.477,188.787,170.892,158.567,170.892z M158.567,250.057h-0.002c-13.43,0-24.356-10.927-24.356-24.358
			c0.005-13.434,10.932-24.358,24.358-24.358c13.431,0,24.358,10.927,24.358,24.358S171.999,250.057,158.567,250.057z"/>
	</g>
</g>
<g>
	<g>
		<path d="M255.342,55.245c-121.045,0-219.171,98.126-219.171,219.17c0,121.045,98.126,219.17,219.171,219.17
			s219.17-98.126,219.17-219.17S376.386,55.245,255.342,55.245z M67.224,225.698c0-50.367,40.977-91.344,91.343-91.344
			s91.344,40.977,91.344,91.344s-40.977,91.344-91.344,91.344S67.224,276.065,67.224,225.698z M316.237,426.191
			c-24.461,0-46.362-11.156-60.896-28.643c-14.533,17.487-36.434,28.643-60.896,28.643c-43.651,0-79.164-35.513-79.164-79.164
			h36.537c0,23.505,19.122,42.627,42.627,42.627c22.921,0,41.666-18.188,42.583-40.889c-8.701-8.105-16.224-20.26-20.002-31.723
			c-2.957-9.925,4.687-18.138,17.051-18.269c14.615,0,29.23,0,43.845,0c12.365,0.13,20.008,8.343,17.051,18.269
			c-3.958,12.01-12.028,24.777-21.256,32.854c1.482,22.171,19.98,39.759,42.52,39.759c23.505,0,42.627-19.122,42.627-42.627h36.537
			C395.402,390.678,359.889,426.191,316.237,426.191z M353.434,317.042c-50.367,0-91.344-40.975-91.344-91.344
			c0-50.368,40.977-91.344,91.344-91.344s91.344,40.977,91.344,91.344S403.802,317.042,353.434,317.042z"/>
	</g>
</g>
<g>
	<g>
		<path d="M353.434,170.892c-30.22,0-54.806,24.585-54.806,54.806s24.586,54.806,54.806,54.806
			c30.221,0,54.806-24.586,54.806-54.806S383.655,170.892,353.434,170.892z M353.434,250.057h-0.003
			c-13.43,0-24.356-10.927-24.356-24.358c0.005-13.434,10.932-24.358,24.358-24.358c13.431,0,24.358,10.927,24.358,24.358
			S366.865,250.057,353.434,250.057z"/>
	</g>
</g>
<g>
	<g>
		<path d="M483.479,46.936C448.352,11.81,393.085,9.14,354.863,38.87c61.422,26.051,110.626,75.455,136.427,137.007
			C521.291,137.643,518.705,82.164,483.479,46.936z"/>
	</g>
</g>
<g>
	<g>
		<path d="M28.523,46.937c-34.888,34.888-37.763,89.641-8.672,127.832C45.897,113.447,95.226,64.315,156.678,38.517
			C118.474,9.162,63.509,11.951,28.523,46.937z"/>
	</g>
</g>
<g>
</g>
<g>
</g>
<g>
</g>
<g>
</g>
<g>
</g>
<g>
</g>
<g>
</g>
<g>
</g>
<g>
</g>
<g>
</g>
<g>
</g>
<g>
</g>
<g>
</g>
<g>
</g>
<g>
</g>
</svg>
